# xmcd
#
# Track frame offsets:
#  150
#  20068
#  41949
#  59661
#  78777
#  101101
#  118413
#  137328
#  157765
#  177563
#  198202
#  220323
#  237034
#  254743
#  274199
#  294898
#
# Disc length: 4213 seconds
#
# Revision: 0
# Processed by: cddbd v1.4PL0 Copyright (c) Steve Scherf et al.
# Submitted via: AltoMP3_Maker 3.0
#
DISCID=ee107310
DTITLE=王力宏 - 唯一
DYEAR=1900
DGENRE=
TTITLE0=唯一
TTITLE1=爱的就是你
TTITLE2=谢绝推销你的爱
TTITLE3=安全感
TTITLE4=戒不了你
TTITLE5=不必问别人
TTITLE6=白狐狸
TTITLE7=变坏
TTITLE8=IF YOU KNOW
TTITLE9=我要
TTITLE10=爱的就是你
TTITLE11=TAKE  YOU  TIME
TTITLE12=爱你等于爱自己
TTITLE13=公转自转
TTITLE14=JULIA
TTITLE15=龙的传人
EXTD=
EXTT0=
EXTT1=
EXTT2=
EXTT3=
EXTT4=
EXTT5=
EXTT6=
EXTT7=
EXTT8=
EXTT9=
EXTT10=
EXTT11=
EXTT12=
EXTT13=
EXTT14=
EXTT15=
PLAYORDER=
